<?xml version="1.0" encoding="UTF-8"?>
<svg width="80px" height="80px" viewBox="0 0 80 80" version="1.1" xmlns="http://www.w3.org/2000/svg" xmlns:xlink="http://www.w3.org/1999/xlink">
    <title>icons/icon_m/filter_night</title>
    <defs>
        <path d="M59.45,23.575 L59.45,25.6865 C59.3765811,26.4392294 59.0803787,27.1529701 58.59925,27.7365 L46.125,40.39525 C44.8738489,41.7445901 44.1467027,43.4970123 44.075,45.33575 L44.075,55.58575 C44.006855,56.0847563 43.7409036,56.5353963 43.337,56.83625 L37.925,59.7985 L37.925,46.60675 C37.8581997,44.7884831 37.1832664,43.045206 36.00825,41.656 L23.40075,27.8595 C22.9126667,27.2328657 22.6171098,26.4779493 22.55,25.6865 L22.55,23.575 L59.45,23.575 M59.45,21.525 L22.55,21.525 C21.4178162,21.525 20.5,22.4428162 20.5,23.575 L20.5,25.6865 C20.5724093,26.9888237 21.0570002,28.2344017 21.88375,29.24325 L34.49125,43.05 C35.3179998,44.0588483 35.8025907,45.3044263 35.875,46.60675 L35.875,61.2335 C35.875,62.04325 36.29525,62.51475 36.9,62.51475 C37.1745193,62.5064227 37.442482,62.4288545 37.679,62.28925 L44.3415,58.589 C45.4040672,57.9168541 46.073195,56.769778 46.13525,55.514 L46.13525,45.264 C46.2035782,43.9649755 46.7134635,42.7282325 47.5805,41.7585 L60.05475,29.192 C60.9217866,28.2222675 61.4316718,26.9855245 61.5,25.6865 L61.5,23.575 C61.5,22.4428162 60.5821838,21.525 59.45,21.525 Z" id="path-1"></path>
    </defs>
    <g id="icon_s" stroke="none" stroke-width="1" fill="none" fill-rule="evenodd">
        <g id="icons/icon_m/filter_night">
            <mask id="mask-2" fill="white">
                <use xlink:href="#path-1"></use>
            </mask>
            <g id="icons/icon_m/filter_day"></g>
            <g id="编组" mask="url(#mask-2)" fill="#FFFFFF">
                <g id="🎨color">
                    <rect id="010-global-/-🌈-white" x="0" y="0" width="82" height="82"></rect>
                </g>
            </g>
        </g>
    </g>
</svg>