# This file uses centimeters as units for non-parametric coordinates.

mtllib ¼ıÍ·.mtl
g default
v -2.490757 0.973044 3.317000
v -3.191791 0.973044 2.627497
v -3.418957 0.973044 3.080696
v -3.456420 0.973044 3.193703
v -2.885051 0.973044 3.524617
v -2.971635 0.973044 3.564339
v -3.048954 0.973044 3.591784
v -3.461254 0.973044 3.304237
v -3.135122 0.973044 3.595764
v -3.435624 0.973044 3.386218
v -3.396472 0.973044 3.465981
v -3.255959 0.973044 3.576070
v -3.331572 0.973044 3.525948
v -3.170382 1.447555 2.648524
v -3.186144 1.421243 2.633044
v -3.191791 1.388503 2.627497
v -3.418957 1.404363 3.080696
v -3.411592 1.437234 3.083042
v -3.391015 1.463467 3.089597
v -3.456420 1.425526 3.193703
v -3.447809 1.459016 3.193771
v -3.424067 1.484519 3.193958
v -3.461254 1.461477 3.304237
v -3.451946 1.496243 3.300907
v -3.426839 1.520426 3.291923
v -3.435624 1.503366 3.386218
v -3.427023 1.539535 3.380441
v -3.404289 1.561962 3.365170
v -3.396472 1.552766 3.465981
v -3.387891 1.590842 3.457256
v -3.365868 1.611859 3.434865
v -3.255959 1.675551 3.576070
v -3.249910 1.716510 3.562012
v -3.235507 1.732334 3.528539
v -3.306673 1.671411 3.490366
v -3.324389 1.653288 3.515683
v -3.331572 1.613268 3.525948
v -3.135122 1.759348 3.595764
v -3.131867 1.800439 3.579486
v -3.124498 1.812468 3.542628
v -3.048954 1.813453 3.591784
v -3.048786 1.852883 3.573102
v -3.048424 1.860223 3.532737
v -2.971635 1.856397 3.564339
v -2.975399 1.891901 3.544466
v -2.983164 1.893700 3.503466
v -2.891935 1.893024 3.521572
v -2.899035 1.927672 3.502146
v -2.912744 1.927195 3.463439
v -2.581455 2.072634 3.226944
v -2.539113 2.045471 3.268589
v -2.554478 2.076799 3.253459
v 2.778620 0.973044 3.317000
v 3.479654 0.973044 2.627497
v 3.706820 0.973044 3.080696
v 3.744283 0.973044 3.193703
v 3.172914 0.973044 3.524617
v 3.259498 0.973044 3.564339
v 3.336817 0.973044 3.591784
v 3.749117 0.973044 3.304237
v 3.422985 0.973044 3.595764
v 3.723487 0.973044 3.386218
v 3.684335 0.973044 3.465981
v 3.543822 0.973044 3.576070
v 3.619435 0.973044 3.525948
v 3.458245 1.447555 2.648524
v 3.474007 1.421243 2.633044
v 3.479654 1.388503 2.627497
v 3.706820 1.404363 3.080696
v 3.699455 1.437234 3.083042
v 3.678878 1.463467 3.089597
v 3.744283 1.425526 3.193703
v 3.735672 1.459016 3.193771
v 3.711930 1.484519 3.193958
v 3.749117 1.461477 3.304237
v 3.739810 1.496243 3.300907
v 3.714702 1.520426 3.291923
v 3.723487 1.503366 3.386218
v 3.714887 1.539535 3.380441
v 3.692152 1.561962 3.365170
v 3.684335 1.552766 3.465981
v 3.675754 1.590842 3.457256
v 3.653731 1.611859 3.434865
v 3.543822 1.675551 3.576070
v 3.537773 1.716510 3.562012
v 3.523371 1.732334 3.528539
v 3.594537 1.671411 3.490366
v 3.612252 1.653288 3.515683
v 3.619435 1.613268 3.525948
v 3.422985 1.759348 3.595764
v 3.419731 1.800439 3.579486
v 3.412361 1.812468 3.542628
v 3.336817 1.813453 3.591784
v 3.336649 1.852883 3.573102
v 3.336287 1.860223 3.532737
v 3.259498 1.856397 3.564339
v 3.263262 1.891901 3.544466
v 3.271027 1.893700 3.503466
v 3.179798 1.893024 3.521572
v 3.186898 1.927672 3.502146
v 3.200608 1.927195 3.463439
v 2.869318 2.072634 3.226944
v 2.826976 2.045471 3.268589
v 2.842341 2.076799 3.253459
v 0.117587 3.148792 1.204730
v 0.143932 3.153342 1.196033
v 0.170276 3.148792 1.204730
v 0.117587 3.102798 1.256944
v 0.143932 3.107326 1.248331
v 0.170276 3.102798 1.256944
v 0.117587 0.973044 -3.546615
v 0.143932 0.973044 -3.562384
v 0.170276 0.973044 -3.546615
v 0.117587 1.310173 -3.546615
v 0.143932 1.309973 -3.562384
v 0.170276 1.310173 -3.546615
v 0.117587 1.350508 -3.518044
v 0.143932 1.350327 -3.533798
v 0.170276 1.350508 -3.518044
v 0.117587 1.382801 -3.462713
v 0.143932 1.382635 -3.478454
v 0.170276 1.382801 -3.462713
v 0.170276 0.973044 2.065679
v 0.143932 0.973044 2.059687
v 0.117587 0.973044 2.065679
v 0.117587 3.145115 1.145213
v 0.143932 3.149619 1.136469
v 0.170276 3.145115 1.145213
vt 0.390856 0.500000
vt 0.398299 0.991896
vt 0.385021 0.347200
vt 0.385021 0.500000
vt 0.421407 0.985750
vt 0.382044 0.344383
vt 0.382044 0.500000
vt 0.376950 0.333450
vt 0.376950 0.500000
vt 0.385021 0.750000
vt 0.385021 0.963901
vt 0.375000 0.326198
vt 0.375000 0.500000
vt 0.308167 0.125000
vt 0.125000 0.125000
vt 0.125000 0.250000
vt 0.379510 0.339697
vt 0.379510 0.500000
vt 0.375000 0.750000
vt 0.376950 0.955196
vt 0.376950 0.750000
vt 0.379510 0.961307
vt 0.379510 0.750000
vt 0.382044 0.964700
vt 0.382044 0.750000
vt 0.389868 0.982286
vt 0.417661 0.987863
vt 0.389379 0.985542
vt 0.414177 0.989589
vt 0.390196 0.988204
vt 0.409569 0.990864
vt 0.402746 0.991966
vt 0.391967 0.989859
vt 0.125000 0.000000
vt 0.318039 0.000000
vt 0.375000 0.943039
vt 0.298802 0.250000
vt 0.394513 0.991205
vt 0.398335 0.967278
vt 0.388115 0.982428
vt 0.385021 0.334244
vt 0.387609 0.985970
vt 0.382044 0.331301
vt 0.388313 0.988994
vt 0.379510 0.326240
vt 0.390112 0.990837
vt 0.376950 0.319464
vt 0.392731 0.992441
vt 0.313483 0.250000
vt 0.375000 0.311517
vt 0.401631 0.993505
vt 0.375000 0.959295
vt 0.334295 0.000000
vt 0.323889 0.125000
vt 0.397181 0.992973
vt 0.409071 0.992421
vt 0.376950 0.971918
vt 0.414326 0.991169
vt 0.379510 0.978172
vt 0.418973 0.989409
vt 0.382044 0.981034
vt 0.423063 0.987016
vt 0.385021 0.980087
vt 0.390856 0.974602
vt 0.390856 0.750000
vt 0.390856 0.336338
vt 0.442522 0.975474
vt 0.385021 0.334244
vt 0.385021 0.347200
vt 0.389868 0.982286
vt 0.388115 0.982428
vt 0.402746 0.991966
vt 0.401631 0.993505
vt 0.397181 0.992973
vt 0.398299 0.991896
vt 0.334295 0.000000
vt 0.318039 0.000000
vt 0.308167 0.125000
vt 0.323889 0.125000
vt 0.385021 0.500000
vt 0.421407 0.985750
vt 0.382044 0.344383
vt 0.382044 0.500000
vt 0.379510 0.339697
vt 0.376950 0.333450
vt 0.376950 0.500000
vt 0.379510 0.500000
vt 0.385021 0.750000
vt 0.382044 0.750000
vt 0.382044 0.964700
vt 0.385021 0.963901
vt 0.375000 0.326198
vt 0.375000 0.500000
vt 0.125000 0.125000
vt 0.125000 0.250000
vt 0.298802 0.250000
vt 0.375000 0.750000
vt 0.375000 0.943039
vt 0.376950 0.955196
vt 0.376950 0.750000
vt 0.379510 0.961307
vt 0.379510 0.750000
vt 0.389379 0.985542
vt 0.417661 0.987863
vt 0.390196 0.988204
vt 0.414177 0.989589
vt 0.391967 0.989859
vt 0.409569 0.990864
vt 0.394513 0.991205
vt 0.125000 0.000000
vt 0.382044 0.331301
vt 0.387609 0.985970
vt 0.379510 0.326240
vt 0.388313 0.988994
vt 0.376950 0.319464
vt 0.390112 0.990837
vt 0.375000 0.311517
vt 0.392731 0.992441
vt 0.375000 0.959295
vt 0.376950 0.971918
vt 0.409071 0.992421
vt 0.313483 0.250000
vt 0.379510 0.978172
vt 0.414326 0.991169
vt 0.382044 0.981034
vt 0.418973 0.989409
vt 0.385021 0.980087
vt 0.423063 0.987016
vt 0.622659 0.750000
vt 0.390856 0.750000
vt 0.622701 0.930995
vt 0.390856 0.336338
vt 0.623151 0.348509
vt 0.442522 0.975474
vt 0.596384 0.884701
vt 0.439853 0.974979
vt 0.554269 0.761295
vt 0.622714 0.937340
vt 0.390856 0.961060
vt 0.390856 0.349498
vt 0.623151 0.500000
vt 0.553500 0.759051
vt 0.399791 0.967548
vt 0.390856 0.961060
vt 0.622659 0.750000
vt 0.390856 0.349498
vt 0.623148 0.330282
vt 0.439853 0.974979
vt 0.597152 0.886936
vt 0.399791 0.967548
vt 0.596384 0.884701
vt 0.622701 0.930995
vt 0.390856 0.974602
vt 0.390856 0.500000
vt 0.623151 0.348509
vt 0.554269 0.761295
vt 0.398335 0.967278
vt 0.597153 0.886936
vt 0.622682 0.937346
vt 0.623147 0.500000
vt 0.623148 0.330282
vt 0.553381 0.759210
vt 0.625000 0.936973
vt 0.625000 0.936973
vt 0.598678 0.886063
vt 0.598678 0.886063
vt 0.625000 0.930697
vt 0.625000 0.930697
vt 0.625000 0.500000
vt 0.625000 0.348501
vt 0.625000 0.348501
vt 0.554737 0.757391
vt 0.554737 0.757391
vt 0.625000 0.330234
vt 0.625000 0.330234
vt 0.555506 0.759643
vt 0.555506 0.759643
vt 0.625000 0.750000
vt 0.597912 0.883819
vt 0.597912 0.883819
vn -0.881887 0.025965 -0.470746
vn -0.906929 0.016143 -0.420975
vn -0.807313 0.429696 -0.404483
vn -0.773667 0.474564 -0.419796
vn -0.548053 0.782080 -0.296630
vn -0.545041 0.782522 -0.300980
vn -0.569593 0.804316 -0.169235
vn -0.578069 0.789673 -0.205553
vn -0.689365 0.723997 0.024561
vn -0.631317 0.769443 0.096940
vn -0.467453 0.350076 0.811748
vn -0.715876 0.305235 0.627976
vn -0.602250 0.017876 0.798108
vn -0.272408 0.016326 0.962043
vn -0.882344 0.000000 -0.470605
vn -0.906346 0.000000 -0.422536
vn -0.535380 0.797786 -0.277319
vn -0.540668 0.787417 -0.296063
vn -0.983366 0.000000 -0.181636
vn -0.985788 0.015434 -0.167286
vn -0.989427 0.016535 0.144088
vn -0.993454 0.000000 0.114233
vn -0.927082 0.000000 0.374859
vn -0.922674 0.016742 0.385217
vn 0.507333 0.031161 0.861187
vn 0.511220 0.032911 0.858820
vn 0.409498 0.002185 0.912308
vn 0.394467 0.001742 0.918909
vn -0.796766 0.000000 0.604289
vn -0.768320 0.016628 0.639850
vn 0.481770 0.218633 0.848585
vn 0.476914 0.234440 0.847107
vn -0.613697 0.000000 0.789542
vn -0.324717 0.000000 0.945811
vn -0.071198 0.000000 0.997462
vn -0.049517 0.021900 0.998533
vn 0.192986 0.000000 0.981202
vn 0.226501 0.020452 0.973796
vn -0.539766 0.784433 -0.305479
vn -0.520430 0.806170 -0.281501
vn -0.548337 0.785273 -0.287527
vn -0.526470 0.810169 -0.257791
vn -0.564583 0.783373 -0.259947
vn -0.544626 0.811740 -0.210859
vn -0.584036 0.780728 -0.222185
vn -0.858379 0.437228 -0.268362
vn -0.884707 0.458901 -0.081872
vn -0.932434 0.266617 0.243892
vn -0.728602 0.674902 -0.116820
vn -0.838236 0.286613 0.463912
vn -0.718713 0.693640 -0.048119
vn -0.270773 0.383878 0.882791
vn -0.566325 0.811919 0.141646
vn -0.017424 0.441432 0.897126
vn -0.477052 0.865597 0.152197
vn 0.131615 0.476134 0.869468
vn 0.175918 0.489543 0.854050
vn -0.394002 0.910127 0.128182
vn 0.306589 0.519328 0.797685
vn 0.324126 0.522319 0.788749
vn -0.328151 0.936055 0.126960
vn 0.273791 0.652458 0.706638
vn -0.350735 0.935854 0.034101
vn 0.881887 0.025966 -0.470746
vn 0.773666 0.474565 -0.419796
vn 0.807313 0.429696 -0.404483
vn 0.906929 0.016143 -0.420975
vn 0.545041 0.782522 -0.300980
vn 0.548053 0.782080 -0.296630
vn 0.569592 0.804316 -0.169235
vn 0.631315 0.769444 0.096939
vn 0.689364 0.723999 0.024562
vn 0.578069 0.789674 -0.205553
vn 0.467454 0.350076 0.811747
vn 0.272409 0.016326 0.962043
vn 0.602250 0.017876 0.798108
vn 0.715879 0.305232 0.627973
vn 0.906346 0.000000 -0.422536
vn 0.882344 0.000000 -0.470605
vn 0.540668 0.787417 -0.296063
vn 0.535380 0.797786 -0.277319
vn 0.985788 0.015434 -0.167286
vn 0.983366 0.000000 -0.181636
vn 0.989427 0.016535 0.144088
vn 0.922674 0.016742 0.385217
vn 0.927082 0.000000 0.374859
vn 0.993454 0.000000 0.114233
vn -0.507333 0.031161 0.861186
vn -0.394468 0.001742 0.918908
vn -0.409500 0.002185 0.912308
vn -0.511220 0.032911 0.858820
vn 0.768321 0.016628 0.639849
vn 0.796766 0.000000 0.604288
vn -0.481770 0.218633 0.848585
vn -0.476914 0.234440 0.847107
vn 0.613697 0.000000 0.789542
vn 0.324717 0.000000 0.945811
vn 0.049518 0.021900 0.998533
vn 0.071198 0.000000 0.997462
vn -0.226501 0.020452 0.973796
vn -0.192985 0.000000 0.981202
vn 0.539766 0.784433 -0.305479
vn 0.520430 0.806170 -0.281501
vn 0.548337 0.785273 -0.287527
vn 0.526470 0.810169 -0.257790
vn 0.564586 0.783372 -0.259947
vn 0.544628 0.811738 -0.210858
vn 0.584036 0.780728 -0.222184
vn 0.858379 0.437227 -0.268362
vn 0.884709 0.458898 -0.081873
vn 0.932434 0.266615 0.243891
vn 0.728602 0.674902 -0.116820
vn 0.838237 0.286613 0.463910
vn 0.718712 0.693641 -0.048118
vn 0.270773 0.383879 0.882791
vn 0.566324 0.811920 0.141647
vn 0.017418 0.441434 0.897125
vn 0.477053 0.865596 0.152198
vn -0.175921 0.489542 0.854049
vn -0.131621 0.476135 0.869466
vn 0.394003 0.910127 0.128182
vn -0.324126 0.522320 0.788748
vn -0.306589 0.519329 0.797685
vn 0.328150 0.936055 0.126961
vn -0.273791 0.652457 0.706639
vn 0.350734 0.935854 0.034101
vn -0.463389 0.264993 0.845606
vn 0.000000 0.373854 0.927488
vn 0.000000 0.355171 0.934801
vn -0.475317 0.235160 0.847805
vn 0.463389 0.264993 0.845606
vn 0.475316 0.235160 0.847805
vn -0.814141 0.374038 -0.444151
vn -0.881146 0.017081 -0.472537
vn -0.352638 0.935423 0.025126
vn -0.539220 0.787574 -0.298279
vn -0.544647 0.779815 -0.308625
vn 0.263909 0.664901 0.698755
vn -0.881372 0.000000 -0.472423
vn 0.881146 0.017082 -0.472537
vn 0.814140 0.374041 -0.444150
vn 0.539220 0.787574 -0.298279
vn 0.352637 0.935423 0.025126
vn 0.544647 0.779815 -0.308625
vn -0.263909 0.664901 0.698756
vn 0.881372 0.000000 -0.472423
vn 0.000000 0.998075 -0.062020
vn 0.000000 0.934847 -0.355050
vn -0.000000 0.750577 0.660783
vn 0.513595 0.000001 -0.858033
vn 0.513595 0.000001 -0.858033
vn 0.513595 0.000001 -0.858033
vn 0.513595 0.000001 -0.858033
vn -0.513594 0.000001 -0.858033
vn -0.513594 0.000001 -0.858033
vn -0.513594 0.000001 -0.858033
vn -0.513594 0.000001 -0.858033
vn 0.435675 0.520286 -0.734500
vn 0.435675 0.520286 -0.734500
vn 0.380538 0.663778 -0.643887
vn -0.435675 0.520286 -0.734499
vn -0.435675 0.520286 -0.734499
vn -0.380538 0.663778 -0.643886
vn 0.000000 0.932550 -0.361040
vn 0.000000 -1.000000 0.000000
vn 0.000000 -1.000000 0.000000
vn 0.000000 -1.000000 0.000000
vn 0.000000 -1.000000 0.000000
vn 0.000000 -1.000000 0.000000
vn 0.000000 -1.000000 0.000000
vn 0.000000 -1.000000 0.000000
vn 0.000000 -1.000000 0.000000
vn 0.000000 -1.000000 0.000000
vn 0.000000 -1.000000 0.000000
vn 0.000000 -1.000000 0.000000
vn 0.000000 -1.000000 0.000000
vn 0.000000 -1.000000 0.000000
vn 0.000000 -1.000000 0.000000
vn 0.000000 -1.000000 0.000000
vn 0.000000 -1.000000 0.000000
vn 0.000000 -1.000000 0.000000
vn 0.000000 -1.000000 0.000000
vn 0.000000 -1.000000 0.000000
vn 0.000000 -1.000000 0.000000
vn 0.000000 -1.000000 0.000000
vn 0.000000 -1.000000 0.000000
vn 0.000000 -1.000000 0.000000
vn 0.000000 -1.000000 0.000000
vn 0.000000 -1.000000 0.000000
vn 0.000000 -1.000000 0.000000
vn 0.000000 -1.000000 0.000000
vn 0.000000 -1.000000 0.000000
vn 0.000000 -1.000000 0.000000
vn 0.000000 -1.000000 0.000000
vn 0.000000 -1.000000 0.000000
vn 0.000000 -1.000000 0.000000
vn 0.000000 -1.000000 0.000000
vn 0.000000 -1.000000 0.000000
vn 0.000000 -1.000000 0.000000
vn 0.000000 -1.000000 0.000000
vn 0.000000 -1.000000 0.000000
vn 0.000000 -1.000000 0.000000
vn 0.000000 -1.000000 0.000000
vn 0.000000 -1.000000 0.000000
vn 0.000000 -1.000000 0.000000
vn 0.000000 -1.000000 0.000000
s 1
g JT
usemtl lambert4SG
f 16/140/1 17/3/2 18/41/3 15/132/4
f 15/39/4 18/40/3 19/26/5 14/143/6
f 34/32/7 35/2/8 36/55/9 33/51/10
f 33/53/11 36/54/12 37/14/13 32/35/14
f 16/140/1 2/1/15 3/4/16 17/3/2
f 19/26/5 49/5/17 50/136/18 14/143/6
f 17/3/2 3/4/16 4/7/19 20/6/20
f 23/17/21 8/18/22 10/9/23 26/8/24
f 5/10/25 47/11/26 44/24/27 6/25/28
f 26/8/24 10/9/23 11/13/29 29/12/30
f 1/130/31 51/139/32 47/11/26 5/10/25
f 37/14/13 29/37/30 11/16/29 13/15/33
f 20/6/20 4/7/19 8/18/22 23/17/21
f 12/19/34 9/21/35 38/20/36 32/36/14
f 38/20/36 9/21/35 7/23/37 41/22/38
f 41/22/38 7/23/37 6/25/28 44/24/27
f 22/28/39 46/27/40 49/5/17 19/26/5
f 25/30/41 43/29/42 46/27/40 22/28/39
f 28/33/43 40/31/44 43/29/42 25/30/41
f 34/32/7 40/31/44 28/33/43 31/38/45 35/2/8
f 12/34/34 32/35/14 37/14/13 13/15/33
f 17/3/2 20/6/20 21/43/46 18/41/3
f 18/40/3 21/42/46 22/28/39 19/26/5
f 20/6/20 23/17/21 24/45/47 21/43/46
f 21/42/46 24/44/47 25/30/41 22/28/39
f 23/17/21 26/8/24 27/47/48 24/45/47
f 24/44/47 27/46/49 28/33/43 25/30/41
f 26/8/24 29/12/30 30/50/50 27/47/48
f 27/46/49 30/48/51 31/38/45 28/33/43
f 32/36/14 38/20/36 39/57/52 33/52/11
f 33/51/10 39/56/53 40/31/44 34/32/7
f 29/37/30 37/14/13 36/54/12 30/49/50
f 30/48/51 36/55/9 35/2/8 31/38/45
f 38/20/36 41/22/38 42/59/54 39/57/52
f 39/56/53 42/58/55 43/29/42 40/31/44
f 41/22/38 44/24/56 45/61/57 42/59/54
f 42/58/55 45/60/58 46/27/40 43/29/42
f 44/24/56 47/11/59 48/63/60 45/61/57
f 45/60/58 48/62/61 49/5/17 46/27/40
f 47/11/59 51/139/32 52/64/62 48/63/60
f 48/62/61 52/134/63 50/136/18 49/5/17
f 68/146/64 67/66/65 70/68/66 69/69/67
f 67/157/65 66/150/68 71/70/69 70/71/66
f 86/72/70 85/73/71 88/74/72 87/75/73
f 85/76/74 84/77/75 89/78/76 88/79/77
f 68/146/64 69/69/67 55/80/78 54/154/79
f 71/70/69 66/150/68 102/148/80 101/81/81
f 69/69/67 72/82/82 56/83/83 55/80/78
f 75/84/84 78/85/85 62/86/86 60/87/87
f 57/88/88 58/89/89 96/90/90 99/91/91
f 78/85/85 81/92/92 63/93/93 62/86/86
f 53/65/94 57/88/88 99/91/91 103/144/95
f 89/78/76 65/94/96 63/95/93 81/96/92
f 72/82/82 75/84/84 60/87/87 56/83/83
f 64/97/97 84/98/75 90/99/98 61/100/99
f 90/99/98 93/101/100 59/102/101 61/100/99
f 93/101/100 96/90/90 58/89/89 59/102/101
f 74/103/102 71/70/69 101/81/81 98/104/103
f 77/105/104 74/103/102 98/104/103 95/106/105
f 80/107/106 77/105/104 95/106/105 92/108/107
f 86/72/70 87/75/73 83/109/108 80/107/106 92/108/107
f 64/110/97 65/94/96 89/78/76 84/77/75
f 69/69/67 70/68/66 73/111/109 72/82/82
f 70/71/66 71/70/69 74/103/102 73/112/109
f 72/82/82 73/111/109 76/113/110 75/84/84
f 73/112/109 74/103/102 77/105/104 76/114/110
f 75/84/84 76/113/110 79/115/111 78/85/85
f 76/114/110 77/105/104 80/107/106 79/116/112
f 78/85/85 79/115/111 82/117/113 81/92/92
f 79/116/112 80/107/106 83/109/108 82/118/114
f 84/98/75 85/119/74 91/120/115 90/99/98
f 85/73/71 86/72/70 92/108/107 91/121/116
f 81/96/92 82/122/113 88/79/77 89/78/76
f 82/118/114 83/109/108 87/75/73 88/74/72
f 90/99/98 91/120/115 94/123/117 93/101/100
f 91/121/116 92/108/107 95/106/105 94/124/118
f 93/101/100 94/123/117 97/125/119 96/90/120
f 94/124/118 95/106/105 98/104/103 97/126/121
f 96/90/120 97/125/119 100/127/122 99/91/123
f 97/126/121 98/104/103 101/81/81 100/128/124
f 99/91/123 100/127/122 104/153/125 103/144/95
f 100/128/124 101/81/81 102/148/80 104/67/126
f 110/152/127 109/167/128 124/178/129 123/145/130
f 109/168/128 108/131/131 125/129/132 124/178/129
f 1/130/31 125/129/132 108/131/131 51/139/32
f 16/140/1 15/132/4 117/161/133 114/133/134
f 50/136/18 52/134/63 105/158/135 126/135/136
f 14/143/6 50/136/18 126/135/136 120/137/137
f 105/138/138 52/64/62 51/139/32 108/131/131
f 2/1/15 16/140/1 114/133/134 111/141/139
f 117/142/133 15/39/4 14/143/6 120/137/137
f 53/65/94 103/144/95 110/152/127 123/145/130
f 68/146/64 116/155/140 119/147/141 67/66/65
f 102/148/80 128/151/142 107/149/143 104/67/126
f 66/150/68 122/156/144 128/151/142 102/148/80
f 107/159/145 110/152/127 103/144/95 104/153/125
f 54/154/79 113/160/146 116/155/140 68/146/64
f 119/162/141 122/156/144 66/150/68 67/157/65
f 105/158/135 106/166/147 127/180/148 126/135/136
f 106/165/147 107/149/143 128/151/142 127/179/148
f 107/159/145 106/164/149 109/167/128 110/152/127
f 106/163/149 105/138/138 108/131/131 109/168/128
s off
f 113/160/150 112/169/151 115/171/152 116/155/153
f 112/169/154 111/141/155 114/133/156 115/170/157
s 1
f 116/155/158 115/171/159 118/174/160 119/147/141
f 115/170/161 114/133/162 117/161/133 118/175/163
f 119/162/141 118/173/160 121/177/164 122/156/144
f 118/172/163 117/142/133 120/137/137 121/176/164
f 122/156/144 121/177/164 127/179/148 128/151/142
f 121/176/164 120/137/137 126/135/136 127/180/148
s off
f 2/1/165 111/141/166 125/129/167 1/130/168
f 111/141/169 112/169/170 124/178/171 125/129/172
f 112/169/173 113/160/174 123/145/175 124/178/176
f 113/160/177 54/154/178 53/65/179 123/145/180
f 55/80/181 56/83/182 60/87/183 62/86/184 63/95/185 65/94/186 64/97/187 61/100/188 59/102/189 58/89/190 57/88/191 53/65/192 54/154/193
f 3/4/194 2/1/195 1/130/196 5/10/197 6/25/198 7/23/199 9/21/200 12/34/201 13/15/202 11/13/203 10/9/204 8/18/205 4/7/206
